<?xml version="1.0" standalone="no"?><svg xmlns="http://www.w3.org/2000/svg" viewBox="0 0 1440 320"><path fill="#00cba9" fill-opacity="1" d="M0,224L20,229.3C40,235,80,245,120,240C160,235,200,213,240,181.3C280,149,320,107,360,122.7C400,139,440,213,480,229.3C520,245,560,203,600,186.7C640,171,680,181,720,186.7C760,192,800,192,840,181.3C880,171,920,149,960,165.3C1000,181,1040,235,1080,229.3C1120,224,1160,160,1200,128C1240,96,1280,96,1320,117.3C1360,139,1400,181,1420,202.7L1440,224L1440,0L1420,0C1400,0,1360,0,1320,0C1280,0,1240,0,1200,0C1160,0,1120,0,1080,0C1040,0,1000,0,960,0C920,0,880,0,840,0C800,0,760,0,720,0C680,0,640,0,600,0C560,0,520,0,480,0C440,0,400,0,360,0C320,0,280,0,240,0C200,0,160,0,120,0C80,0,40,0,20,0L0,0Z"></path></svg>